<svg xmlns="http://www.w3.org/2000/svg" xmlns:xlink="http://www.w3.org/1999/xlink" width="500" zoomAndPan="magnify" viewBox="0 0 375.12 383.03998" height="500" preserveAspectRatio="xMidYMid meet" version="1.0"><defs><clipPath id="4880898cea"><path d="M 0.03125 179 L 93 179 L 93 199 L 0.03125 199 Z M 0.03125 179 " clip-rule="nonzero"/></clipPath><clipPath id="fd24123444"><path d="M 189 197 L 200 197 L 200 230.046875 L 189 230.046875 Z M 189 197 " clip-rule="nonzero"/></clipPath></defs><path fill="#c59520" d="M 176.21875 220.277344 C 179.46875 207.019531 174.660156 198.171875 161.792969 193.738281 C 158.617188 192.882812 155.058594 192.804688 151.121094 193.5 C 149.679688 193.773438 148.324219 194.101562 147.054688 194.488281 C 136.972656 197.835938 130.910156 199.714844 128.863281 200.132812 C 124.339844 201.242188 120.4375 201.933594 117.164062 202.214844 C 108.257812 202.90625 102.222656 202.136719 99.058594 199.90625 C 93.164062 196.820312 90.597656 192.976562 91.355469 188.378906 C 92.378906 184.648438 95.203125 182.433594 99.828125 181.738281 C 105.480469 181.960938 106.363281 184.285156 102.476562 188.714844 C 103.707031 188.957031 105.09375 188.539062 106.636719 187.460938 C 110.503906 183.746094 109.316406 181.183594 103.0625 179.78125 C 97.722656 179.546875 93.691406 180.832031 90.96875 183.628906 C 88.886719 185.152344 87.796875 188.996094 87.695312 195.160156 C 80.285156 192.992188 73.714844 194.101562 67.980469 198.488281 C 63.957031 201.839844 62.453125 206.578125 63.464844 212.707031 C 66.09375 219.929688 70.671875 223.425781 77.203125 223.195312 C 81.953125 222.007812 83.992188 219.207031 83.3125 214.789062 C 82.816406 212.359375 81.964844 211.007812 80.761719 210.734375 C 80.328125 210.671875 79.890625 210.734375 79.449219 210.925781 C 76.796875 212.753906 74.832031 213.703125 73.550781 213.78125 C 71.304688 214.003906 69.652344 213.433594 68.59375 212.078125 C 66.882812 207.675781 68.492188 204.605469 73.425781 202.871094 C 76.1875 202.023438 79.21875 201.78125 82.527344 202.140625 C 83.914062 202.300781 85.402344 202.589844 86.992188 203.003906 C 94.457031 205.390625 99.339844 206.730469 101.648438 207.027344 C 107.082031 207.832031 112.042969 208.152344 116.523438 207.988281 C 118.71875 208.019531 122.496094 207.46875 127.855469 206.339844 L 147.378906 200.664062 C 149.988281 200.105469 152.648438 199.859375 155.355469 199.933594 C 160.894531 199.914062 165.15625 200.890625 168.144531 202.859375 C 171.070312 205.105469 173.207031 208.660156 174.554688 213.515625 Z M 176.21875 220.277344 " fill-opacity="1" fill-rule="nonzero"/><path fill="#c59520" d="M 197.449219 220.492188 C 194.46875 207.171875 199.453125 198.421875 212.40625 194.246094 C 215.601562 193.457031 219.15625 193.449219 223.082031 194.222656 C 224.519531 194.523438 225.867188 194.882812 227.128906 195.296875 C 237.140625 198.84375 243.164062 200.847656 245.199219 201.304688 C 249.703125 202.503906 253.589844 203.273438 256.855469 203.621094 C 265.746094 204.492188 271.796875 203.84375 275.003906 201.675781 C 280.957031 198.710938 283.601562 194.921875 282.9375 190.308594 C 281.988281 186.554688 279.210938 184.285156 274.601562 183.496094 C 268.945312 183.605469 268.015625 185.914062 271.8125 190.421875 C 270.578125 190.636719 269.199219 190.191406 267.679688 189.085938 C 263.886719 185.289062 265.128906 182.753906 271.40625 181.476562 C 276.75 181.351562 280.753906 182.714844 283.417969 185.566406 C 285.472656 187.132812 286.484375 190.996094 286.460938 197.164062 C 293.914062 195.140625 300.460938 196.382812 306.105469 200.886719 C 310.058594 204.316406 311.46875 209.085938 310.332031 215.191406 C 307.558594 222.359375 302.910156 225.765625 296.386719 225.402344 C 291.660156 224.121094 289.679688 221.277344 290.449219 216.875 C 290.992188 214.457031 291.871094 213.121094 293.082031 212.875 C 293.515625 212.820312 293.949219 212.890625 294.390625 213.089844 C 297 214.96875 298.949219 215.960938 300.226562 216.0625 C 302.46875 216.332031 304.132812 215.796875 305.21875 214.460938 C 307.019531 210.09375 305.46875 206.992188 300.570312 205.160156 C 297.828125 204.253906 294.800781 203.953125 291.488281 204.246094 C 290.097656 204.378906 288.605469 204.636719 287.003906 205.019531 C 279.496094 207.253906 274.585938 208.492188 272.273438 208.746094 C 266.820312 209.4375 261.855469 209.660156 257.378906 209.40625 C 255.183594 209.394531 251.417969 208.765625 246.082031 207.527344 L 226.679688 201.464844 C 224.082031 200.851562 221.429688 200.554688 218.71875 200.570312 C 213.179688 200.441406 208.898438 201.332031 205.875 203.238281 C 202.902344 205.425781 200.695312 208.933594 199.25 213.765625 Z M 197.449219 220.492188 " fill-opacity="1" fill-rule="nonzero"/><path fill="#c59520" d="M 132.640625 201.609375 C 132.050781 206.902344 128.167969 211.835938 120.992188 216.40625 C 116.738281 218.78125 112.070312 219.761719 106.996094 219.347656 C 108.429688 216.738281 108.835938 214.8125 108.203125 213.566406 C 107.347656 211.960938 105.921875 211.308594 103.925781 211.605469 C 102.003906 211.925781 100.5625 213.019531 99.601562 214.878906 C 98.894531 216.78125 99.183594 218.429688 100.472656 219.828125 C 103.9375 222.847656 109.277344 223.5 116.488281 221.777344 C 121.582031 220.519531 127.042969 216.929688 132.871094 211.011719 C 133.316406 211.332031 133.289062 212.285156 132.78125 213.871094 C 132.078125 215.613281 130.808594 217.761719 128.972656 220.320312 C 128.816406 220.675781 128.933594 220.804688 129.328125 220.707031 C 132.191406 219.597656 135.800781 216.027344 140.164062 209.992188 C 139.441406 213.773438 139.996094 216.476562 141.832031 218.109375 C 144.5 220.328125 147.445312 221.125 150.664062 220.492188 C 156.3125 219.273438 159.273438 216.484375 159.546875 212.132812 C 159.597656 210.472656 159.511719 209.550781 159.296875 209.367188 C 157.34375 212.246094 154.769531 214.035156 151.570312 214.734375 C 148.285156 215.40625 145.886719 214.59375 144.375 212.300781 C 142.761719 207.503906 145.417969 202.6875 152.34375 197.84375 Z M 132.640625 201.609375 " fill-opacity="1" fill-rule="nonzero"/><path fill="#c59520" d="M 241.394531 202.703125 C 241.878906 208.007812 245.660156 213.019531 252.742188 217.734375 C 256.949219 220.195312 261.59375 221.269531 266.679688 220.957031 C 265.292969 218.320312 264.929688 216.382812 265.585938 215.152344 C 266.472656 213.566406 267.914062 212.941406 269.902344 213.277344 C 271.820312 213.636719 273.238281 214.757812 274.160156 216.636719 C 274.828125 218.550781 274.503906 220.195312 273.191406 221.566406 C 269.664062 224.519531 264.3125 225.0625 257.136719 223.195312 C 252.070312 221.832031 246.679688 218.136719 240.976562 212.101562 C 240.523438 212.414062 240.53125 213.367188 241.007812 214.960938 C 241.675781 216.714844 242.902344 218.890625 244.683594 221.484375 C 244.835938 221.84375 244.714844 221.96875 244.320312 221.863281 C 241.484375 220.699219 237.945312 217.054688 233.703125 210.933594 C 234.351562 214.726562 233.742188 217.421875 231.875 219.015625 C 229.160156 221.183594 226.203125 221.917969 222.996094 221.21875 C 217.371094 219.886719 214.46875 217.039062 214.28125 212.683594 C 214.265625 211.023438 214.367188 210.101562 214.589844 209.921875 C 216.484375 212.839844 219.019531 214.679688 222.203125 215.445312 C 225.476562 216.183594 227.890625 215.421875 229.449219 213.15625 C 231.160156 208.394531 228.597656 203.523438 221.769531 198.542969 Z M 241.394531 202.703125 " fill-opacity="1" fill-rule="nonzero"/><path fill="#c59520" d="M 90.214844 198.308594 C 85.003906 195.082031 76.972656 192.972656 66.128906 191.976562 C 58.964844 191.054688 51.238281 191.5625 42.941406 193.5 C 34.929688 195.648438 28.902344 198.824219 24.863281 203.03125 C 20.347656 208.089844 19.171875 212.550781 21.335938 216.410156 C 22.558594 218.476562 24.4375 219.949219 26.96875 220.828125 C 29.613281 221.617188 31.820312 221.527344 33.597656 220.554688 C 34.503906 220.007812 34.910156 219.175781 34.816406 218.058594 C 32.851562 213.847656 32.0625 211.601562 32.457031 211.324219 C 32.542969 209.984375 33.082031 208.65625 34.074219 207.335938 C 37.457031 203.136719 42.644531 200.226562 49.636719 198.605469 C 63.75 195.949219 77.542969 196.328125 91.019531 199.742188 Z M 90.214844 198.308594 " fill-opacity="1" fill-rule="nonzero"/><path fill="#c59520" d="M 283.878906 200.257812 C 289.15625 197.140625 297.226562 195.191406 308.089844 194.414062 C 315.265625 193.636719 322.984375 194.296875 331.238281 196.402344 C 339.207031 198.710938 345.167969 202.007812 349.125 206.296875 C 353.535156 211.445312 354.621094 215.929688 352.378906 219.742188 C 351.113281 221.785156 349.207031 223.21875 346.660156 224.046875 C 344 224.785156 341.792969 224.648438 340.035156 223.636719 C 339.140625 223.074219 338.75 222.238281 338.867188 221.121094 C 340.917969 216.949219 341.75 214.722656 341.363281 214.433594 C 341.304688 213.09375 340.792969 211.753906 339.824219 210.414062 C 336.527344 206.148438 331.398438 203.136719 324.441406 201.375 C 310.386719 198.433594 296.589844 198.535156 283.042969 201.675781 Z M 283.878906 200.257812 " fill-opacity="1" fill-rule="nonzero"/><g clip-path="url(#4880898cea)"><path fill="#c59520" d="M 92.476562 198.101562 C 91.828125 196.8125 87.71875 194.921875 80.148438 192.425781 C 75.839844 191.105469 71.210938 190.335938 66.253906 190.113281 C 61.347656 189.898438 55.691406 190.125 49.292969 190.792969 C 47.476562 190.871094 40.824219 192.007812 29.335938 194.195312 C 27.324219 194.519531 25.554688 194.742188 24.027344 194.859375 C 17.730469 195.3125 13.191406 195.167969 10.402344 194.417969 C 4.960938 192.980469 3.589844 190.445312 6.285156 186.8125 C 7.554688 185.4375 8.957031 184.945312 10.492188 185.328125 C 11.390625 185.414062 11.972656 186.726562 12.246094 189.269531 C 12.648438 189.660156 13.226562 189.804688 13.976562 189.695312 C 16.4375 189.066406 17.925781 187.5 18.449219 184.992188 C 18.140625 181.386719 15.738281 179.40625 11.25 179.046875 C 5.804688 179.390625 2.320312 182.679688 0.808594 188.914062 C 0.585938 193.863281 3.582031 196.984375 9.792969 198.277344 C 12.800781 198.800781 16.648438 198.84375 21.339844 198.40625 C 22.507812 198.304688 24.039062 198.121094 25.929688 197.847656 C 35.910156 196.179688 42.148438 195.242188 44.648438 195.035156 C 48.625 194.59375 52.738281 194.269531 56.996094 194.0625 C 66.339844 193.867188 73.160156 194.300781 77.460938 195.367188 Z M 92.476562 198.101562 " fill-opacity="1" fill-rule="nonzero"/></g><path fill="#c59520" d="M 281.621094 200.007812 C 282.296875 198.730469 286.445312 196.921875 294.0625 194.578125 C 298.394531 193.347656 303.039062 192.667969 308 192.546875 C 312.910156 192.429688 318.558594 192.769531 324.945312 193.566406 C 326.757812 193.683594 333.382812 194.953125 344.828125 197.371094 C 346.832031 197.738281 348.597656 197.992188 350.121094 198.140625 C 356.40625 198.722656 360.949219 198.667969 363.753906 197.976562 C 369.222656 196.648438 370.644531 194.140625 368.023438 190.453125 C 366.78125 189.054688 365.386719 188.535156 363.84375 188.886719 C 362.949219 188.953125 362.335938 190.253906 362.015625 192.789062 C 361.605469 193.175781 361.023438 193.304688 360.273438 193.183594 C 357.828125 192.503906 356.367188 190.90625 355.898438 188.390625 C 356.28125 184.792969 358.71875 182.859375 363.214844 182.59375 C 368.65625 183.046875 372.070312 186.40625 373.457031 192.667969 C 373.578125 197.621094 370.519531 200.679688 364.285156 201.847656 C 361.265625 202.308594 357.417969 202.273438 352.738281 201.742188 C 351.570312 201.621094 350.042969 201.402344 348.160156 201.089844 C 338.21875 199.222656 331.996094 198.164062 329.503906 197.90625 C 325.535156 197.382812 321.429688 196.976562 317.175781 196.683594 C 307.839844 196.300781 301.011719 196.597656 296.691406 197.574219 Z M 281.621094 200.007812 " fill-opacity="1" fill-rule="nonzero"/><path fill="#c59520" d="M 175.144531 185.726562 C 174.207031 186.328125 173.652344 187.398438 173.488281 188.941406 C 173.527344 190.328125 174.019531 191.082031 174.960938 191.210938 C 177.5625 191 179.570312 189.332031 180.988281 186.203125 C 183.152344 180.777344 183.28125 176.125 181.375 172.253906 C 179.667969 169.414062 177.148438 167.5625 173.816406 166.699219 C 170.886719 166.007812 168.144531 166.511719 165.597656 168.203125 C 162.277344 170.691406 161.457031 174.570312 163.128906 179.835938 C 163.214844 179.9375 163.296875 179.949219 163.378906 179.878906 C 163.953125 178.925781 164.769531 178.070312 165.828125 177.316406 C 166.730469 176.65625 167.695312 176.128906 168.734375 175.734375 C 170.847656 174.984375 172.871094 174.875 174.796875 175.398438 C 176.867188 175.992188 178.226562 177.167969 178.878906 178.925781 C 179.394531 180.964844 178.972656 182.636719 177.609375 183.945312 Z M 175.144531 185.726562 " fill-opacity="1" fill-rule="nonzero"/><path fill="#c59520" d="M 199.21875 185.972656 C 200.148438 186.589844 200.675781 187.671875 200.808594 189.21875 C 200.742188 190.601562 200.238281 191.347656 199.292969 191.457031 C 196.699219 191.195312 194.722656 189.484375 193.367188 186.328125 C 191.3125 180.859375 191.28125 176.207031 193.261719 172.371094 C 195.027344 169.570312 197.582031 167.769531 200.929688 166.96875 C 203.875 166.339844 206.601562 166.898438 209.117188 168.640625 C 212.386719 171.195312 213.128906 175.089844 211.347656 180.324219 C 211.261719 180.417969 211.179688 180.433594 211.101562 180.359375 C 210.546875 179.394531 209.746094 178.523438 208.703125 177.746094 C 207.816406 177.070312 206.859375 176.523438 205.832031 176.105469 C 203.730469 175.316406 201.710938 175.164062 199.773438 175.652344 C 197.691406 176.203125 196.308594 177.351562 195.625 179.097656 C 195.066406 181.125 195.453125 182.804688 196.789062 184.140625 Z M 199.21875 185.972656 " fill-opacity="1" fill-rule="nonzero"/><path fill="#c59520" d="M 187.527344 195.457031 C 186.171875 193.589844 185.398438 191.804688 185.210938 190.105469 C 185.09375 189.277344 185.023438 188.429688 185.007812 187.558594 L 184.8125 177.445312 C 184.773438 174.554688 184.789062 172.542969 184.863281 171.410156 C 184.894531 170.378906 185.070312 168.476562 185.390625 165.703125 C 185.851562 162.386719 186.453125 160.324219 187.191406 159.507812 Z M 187.527344 195.457031 " fill-opacity="1" fill-rule="nonzero"/><path fill="#c59520" d="M 186.644531 195.445312 C 188.035156 193.609375 188.84375 191.839844 189.066406 190.144531 C 189.199219 189.320312 189.285156 188.472656 189.324219 187.601562 L 189.71875 177.496094 C 189.820312 174.605469 189.839844 172.59375 189.789062 171.457031 C 189.777344 170.429688 189.640625 168.523438 189.378906 165.742188 C 188.984375 162.421875 188.425781 160.34375 187.703125 159.515625 Z M 186.644531 195.445312 " fill-opacity="1" fill-rule="nonzero"/><path fill="#c59520" d="M 185.6875 172.304688 C 185.648438 172.355469 185.574219 172.722656 185.472656 173.410156 C 185.269531 175.351562 185.097656 176.824219 184.960938 177.824219 C 184.453125 181.15625 184.160156 183.285156 184.078125 184.207031 C 183.882812 186.097656 183.839844 187.667969 183.960938 188.917969 C 184.101562 190.285156 184.40625 191.46875 184.875 192.472656 C 185.828125 194.300781 186.535156 195.289062 187.003906 195.441406 C 187.417969 195.445312 187.644531 195.054688 187.6875 194.265625 C 187.753906 193.742188 187.652344 192.101562 187.378906 189.34375 Z M 185.6875 172.304688 " fill-opacity="1" fill-rule="nonzero"/><path fill="#c59520" d="M 188.949219 172.335938 C 188.988281 172.390625 189.050781 172.757812 189.140625 173.445312 C 189.308594 175.394531 189.449219 176.867188 189.566406 177.871094 C 190.003906 181.210938 190.257812 183.34375 190.316406 184.269531 C 190.476562 186.164062 190.484375 187.738281 190.339844 188.980469 C 190.171875 190.34375 189.84375 191.523438 189.351562 192.515625 C 188.367188 194.324219 187.636719 195.300781 187.164062 195.441406 C 186.753906 195.441406 186.535156 195.042969 186.503906 194.253906 C 186.449219 193.730469 186.585938 192.089844 186.917969 189.339844 Z M 188.949219 172.335938 " fill-opacity="1" fill-rule="nonzero"/><path fill="#c59520" d="M 185.855469 174.164062 C 185.753906 174.125 185.34375 175.992188 184.621094 179.769531 C 184.222656 181.855469 183.96875 183.367188 183.863281 184.300781 C 183.433594 187.511719 183.332031 189.882812 183.558594 191.40625 C 183.707031 192.628906 184.160156 193.691406 184.925781 194.605469 C 186.019531 195.992188 186.808594 196.480469 187.292969 196.074219 C 187.722656 195.910156 187.957031 195.425781 187.992188 194.628906 C 188.117188 193.644531 188.082031 191.746094 187.886719 188.925781 Z M 185.855469 174.164062 " fill-opacity="1" fill-rule="nonzero"/><path fill="#c59520" d="M 188.742188 174.195312 C 188.84375 174.15625 189.21875 176.03125 189.863281 179.824219 C 190.21875 181.917969 190.441406 183.433594 190.53125 184.367188 C 190.898438 187.585938 190.949219 189.957031 190.691406 191.480469 C 190.519531 192.695312 190.042969 193.753906 189.261719 194.648438 C 188.140625 196.011719 187.34375 196.488281 186.867188 196.070312 C 186.4375 195.894531 186.214844 195.410156 186.195312 194.613281 C 186.089844 193.625 186.160156 191.726562 186.414062 188.910156 Z M 188.742188 174.195312 " fill-opacity="1" fill-rule="nonzero"/><path fill="#c59520" d="M 185.578125 186.40625 C 185.363281 183.246094 184.9375 180.632812 184.304688 178.570312 C 183.800781 176.722656 182.386719 173.207031 180.0625 168.019531 C 179.648438 166.96875 179.375 166.132812 179.25 165.507812 C 178.753906 163.066406 178.742188 160.8125 179.214844 158.738281 C 179.980469 155.136719 181.472656 151.675781 183.691406 148.355469 C 185.699219 145.4375 187.242188 144.542969 188.3125 145.679688 C 189.308594 146.867188 189.957031 149.976562 190.253906 155.007812 C 190.359375 159.339844 189.988281 163.9375 189.140625 168.792969 Z M 185.578125 186.40625 " fill-opacity="1" fill-rule="nonzero"/><path fill="#c59520" d="M 188.773438 186.4375 C 189.050781 183.28125 189.53125 180.679688 190.207031 178.628906 C 190.75 176.792969 192.230469 173.304688 194.65625 168.164062 C 195.09375 167.125 195.382812 166.292969 195.523438 165.671875 C 196.066406 163.242188 196.121094 160.984375 195.695312 158.90625 C 195 155.289062 193.578125 151.796875 191.429688 148.433594 C 189.476562 145.476562 187.953125 144.550781 186.859375 145.664062 C 185.839844 146.832031 185.132812 149.929688 184.730469 154.953125 C 184.539062 159.28125 184.816406 163.882812 185.566406 168.757812 Z M 188.773438 186.4375 " fill-opacity="1" fill-rule="nonzero"/><path fill="#c59520" d="M 174.242188 229.761719 C 179.734375 225.09375 182.984375 218.230469 183.996094 209.164062 C 184.207031 205.058594 183.648438 201.976562 182.320312 199.914062 C 181.609375 198.6875 180.617188 197.789062 179.347656 197.226562 C 177.972656 196.757812 177.097656 196.910156 176.722656 197.683594 C 176.550781 198.046875 176.613281 198.546875 176.914062 199.179688 C 178.636719 201.714844 179.769531 203.792969 180.316406 205.417969 C 180.777344 206.671875 181.019531 208.054688 181.042969 209.574219 C 181.183594 213.554688 179.929688 217.765625 177.277344 222.199219 Z M 174.242188 229.761719 " fill-opacity="1" fill-rule="nonzero"/><g clip-path="url(#fd24123444)"><path fill="#c59520" d="M 199.238281 230.011719 C 193.839844 225.234375 190.726562 218.304688 189.898438 209.222656 C 189.769531 205.117188 190.386719 202.042969 191.757812 200.011719 C 192.492188 198.796875 193.503906 197.917969 194.789062 197.382812 C 196.171875 196.941406 197.042969 197.109375 197.402344 197.890625 C 197.566406 198.261719 197.492188 198.757812 197.179688 199.386719 C 195.40625 201.882812 194.230469 203.9375 193.652344 205.554688 C 193.164062 206.796875 192.894531 208.175781 192.84375 209.691406 C 192.621094 213.671875 193.789062 217.902344 196.351562 222.390625 Z M 199.238281 230.011719 " fill-opacity="1" fill-rule="nonzero"/></g></svg>