<svg xmlns="http://www.w3.org/2000/svg" xmlns:xlink="http://www.w3.org/1999/xlink" width="500" zoomAndPan="magnify" viewBox="0 0 375.12 383.03998" height="500" preserveAspectRatio="xMidYMid meet" version="1.0"><defs><clipPath id="38f73b83d0"><path d="M 4.007812 66 L 369.839844 66 L 369.839844 308.378906 L 4.007812 308.378906 Z M 4.007812 66 " clip-rule="nonzero"/></clipPath></defs><g clip-path="url(#38f73b83d0)"><path fill="#c59520" d="M 247.605469 93.675781 C 248.261719 88.589844 250.734375 84.164062 255.023438 80.394531 C 265.964844 70.792969 281.066406 65.570312 295.28125 69.433594 C 311.5 73.835938 321.246094 88.664062 321.023438 105.144531 C 321.019531 105.285156 321.070312 105.402344 321.167969 105.5 C 321.269531 105.597656 321.386719 105.644531 321.527344 105.640625 C 335.609375 105.261719 349.863281 110.292969 360.0625 120.082031 C 366.109375 125.875 369.300781 133.105469 369.648438 141.773438 C 370.527344 164.121094 352.257812 177.894531 332.230469 183.1875 C 332.050781 183.234375 331.964844 183.355469 331.96875 183.542969 C 332.152344 191.171875 329.8125 197.636719 324.953125 202.941406 C 313.019531 215.957031 293.660156 217.699219 276.851562 215.824219 C 268.855469 214.933594 260.679688 213.03125 252.324219 210.121094 C 239.621094 205.699219 227.375 200.117188 215.578125 193.378906 C 215.34375 193.246094 215.089844 193.1875 214.816406 193.203125 C 214.546875 193.21875 214.300781 193.304688 214.078125 193.46875 L 193.039062 208.9375 C 192.988281 208.976562 192.949219 209.023438 192.921875 209.078125 C 192.890625 209.132812 192.878906 209.191406 192.878906 209.253906 C 192.882812 209.320312 192.898438 209.378906 192.925781 209.433594 C 192.957031 209.488281 193 209.53125 193.050781 209.566406 C 206.550781 218.515625 220.867188 225.527344 235.996094 230.605469 C 246.617188 234.164062 257.347656 235.535156 268.191406 234.714844 C 272.078125 234.425781 274.296875 234.234375 274.839844 234.148438 C 274.921875 234.132812 274.980469 234.164062 275.015625 234.242188 C 275.050781 234.320312 275.039062 234.386719 274.976562 234.445312 C 273.546875 235.664062 269.851562 236.277344 267.773438 236.519531 C 252.375 238.332031 237.78125 234.863281 223.269531 229.074219 C 215.746094 226.070312 209.027344 223.230469 201.46875 219.015625 C 196.382812 216.175781 192.417969 213.921875 189.582031 212.25 C 189.480469 212.1875 189.378906 212.195312 189.285156 212.273438 C 186.589844 214.605469 183.6875 217.242188 180.574219 220.183594 C 172.035156 228.25 165.816406 238.183594 161.984375 249.253906 C 160.082031 254.761719 159.117188 259.835938 159.09375 264.484375 C 159.019531 280.707031 167.101562 296.296875 182.882812 302.175781 C 189.21875 304.535156 195.5 305 201.730469 303.566406 C 213.476562 300.878906 221.21875 292.769531 223.679688 281.089844 C 225.894531 270.550781 221.707031 259.003906 211.585938 254.277344 C 205.003906 251.207031 196.699219 252.261719 192.085938 258.191406 C 191.425781 259.035156 191.054688 259.996094 190.972656 261.074219 C 190.953125 261.332031 191 261.574219 191.117188 261.804688 C 191.234375 262.03125 191.402344 262.210938 191.625 262.34375 C 193.898438 263.703125 195.96875 265.589844 195.425781 268.441406 C 194.914062 271.132812 193 274.1875 189.691406 272.992188 C 188.488281 272.558594 187.488281 271.769531 186.703125 270.628906 C 181.933594 263.746094 186.578125 254.929688 192.914062 250.914062 C 198.5625 247.328125 204.8125 246.796875 211.660156 249.320312 C 219.910156 252.359375 226.199219 259.679688 227.734375 268.398438 C 229.648438 279.207031 226.46875 290.917969 218.644531 298.558594 C 209.464844 307.511719 195.851562 310.070312 183.464844 306.53125 C 173.546875 303.703125 165.800781 298.085938 160.230469 289.683594 C 157.402344 285.414062 154.546875 278.898438 153.566406 273.796875 C 150.023438 255.230469 159.011719 235.796875 170.835938 222.441406 C 174.71875 218.058594 179.085938 213.703125 183.933594 209.382812 C 184.023438 209.300781 184.0625 209.199219 184.054688 209.078125 C 184.046875 208.960938 183.992188 208.867188 183.890625 208.804688 L 164.039062 195.6875 C 163.886719 195.589844 163.738281 195.597656 163.597656 195.710938 C 162.777344 196.371094 161.441406 197.242188 159.597656 198.320312 C 151.625 202.972656 142.289062 207.371094 131.585938 211.515625 C 122.699219 214.960938 113.390625 217.386719 103.65625 218.792969 C 87.183594 221.175781 68.703125 219.355469 56.410156 207.019531 C 49.316406 199.894531 45.695312 190.144531 47.886719 180.140625 C 47.910156 180.023438 47.890625 179.914062 47.832031 179.8125 C 47.769531 179.710938 47.679688 179.648438 47.566406 179.617188 C 27.855469 174.445312 4.285156 159.625 4.398438 136.105469 C 4.429688 128.722656 7.066406 122.140625 12.308594 116.351562 C 25.875 101.375 47.257812 99.269531 66.082031 102.167969 C 75.105469 103.554688 83.527344 105.792969 91.347656 108.882812 C 107.59375 115.3125 122.972656 123.058594 137.488281 132.132812 C 140.65625 134.113281 145.222656 137.136719 151.1875 141.199219 C 155.570312 144.191406 160.171875 147.15625 164.992188 150.097656 C 165.203125 150.222656 165.40625 150.21875 165.609375 150.082031 C 172.839844 145.265625 179.726562 140.242188 186.273438 135.011719 C 186.332031 134.964844 186.375 134.90625 186.410156 134.839844 C 186.441406 134.773438 186.457031 134.699219 186.457031 134.625 C 186.457031 134.550781 186.441406 134.480469 186.40625 134.410156 C 186.371094 134.34375 186.324219 134.289062 186.265625 134.242188 C 183.695312 132.289062 181.183594 130.492188 178.734375 128.855469 C 170.414062 123.296875 162.378906 118.152344 154.632812 113.425781 C 151.460938 111.488281 148.476562 109.78125 145.675781 108.300781 C 142.445312 106.597656 137.664062 103.703125 133.574219 101.722656 C 130.601562 100.285156 125.695312 98.273438 118.859375 95.695312 C 110.617188 92.589844 103 90.601562 95.496094 90.332031 C 94.066406 90.277344 92.726562 90.097656 91.472656 89.789062 C 91.367188 89.761719 91.320312 89.695312 91.328125 89.589844 C 91.335938 89.484375 91.390625 89.425781 91.496094 89.421875 C 97.34375 88.824219 102.902344 88.933594 108.171875 89.738281 C 114.738281 90.746094 121.890625 92.832031 129.625 95.996094 C 137.941406 99.398438 146.207031 103.542969 154.417969 108.421875 C 166.613281 115.675781 178.613281 123.328125 190.417969 131.382812 C 190.59375 131.5 190.769531 131.5 190.941406 131.375 C 201.109375 124.042969 209.863281 115.328125 217.203125 105.230469 C 222.800781 97.527344 226.234375 88.8125 222.445312 79.464844 C 221.21875 76.4375 219.027344 74.117188 215.875 72.503906 C 207.6875 68.3125 196.828125 71.179688 196.648438 81.921875 C 196.609375 84.335938 196.875 86.511719 197.449219 88.441406 C 197.484375 88.566406 197.457031 88.675781 197.363281 88.765625 C 197.269531 88.855469 197.160156 88.882812 197.039062 88.839844 C 194.421875 88.015625 192.683594 86.402344 191.820312 83.992188 C 190.140625 79.320312 192.121094 74.734375 195.621094 71.296875 C 199.371094 67.613281 203.550781 65.855469 208.167969 66.019531 C 212.957031 66.191406 217.183594 67.925781 220.851562 71.222656 C 224.886719 74.851562 227.164062 79.703125 227.679688 85.777344 C 228.472656 95.085938 223.730469 104.246094 217.863281 111.5625 C 211.390625 119.640625 204.027344 127.214844 195.769531 134.28125 C 195.65625 134.375 195.605469 134.496094 195.613281 134.644531 C 195.625 134.792969 195.691406 134.90625 195.8125 134.988281 L 216.988281 148.96875 C 217.105469 149.046875 217.226562 149.046875 217.34375 148.96875 C 233.433594 138.246094 248.351562 128.433594 265.324219 120.402344 C 281.910156 112.558594 298.648438 106.074219 316.582031 105.574219 C 316.742188 105.570312 316.878906 105.511719 316.992188 105.398438 C 317.101562 105.28125 317.160156 105.144531 317.160156 104.984375 C 317.152344 100.539062 316.496094 96.324219 315.195312 92.34375 C 310.320312 77.375 297.902344 70.441406 282.726562 71.417969 C 274.046875 71.984375 266.5 75.457031 259.257812 80.210938 C 255.390625 82.75 252.234375 85.695312 249.789062 89.042969 C 249.015625 90.105469 248.316406 91.65625 247.699219 93.695312 C 247.6875 93.71875 247.667969 93.726562 247.644531 93.71875 C 247.621094 93.714844 247.609375 93.699219 247.605469 93.675781 Z M 155.523438 156.296875 C 155.566406 156.273438 155.589844 156.242188 155.589844 156.191406 C 155.59375 156.144531 155.574219 156.105469 155.535156 156.074219 C 136.707031 142.78125 116.769531 130.976562 97.15625 120.9375 C 88.695312 116.605469 79.835938 113.054688 70.578125 110.28125 C 59.523438 106.972656 48.460938 106.148438 37.390625 107.808594 C 24.691406 109.707031 10.746094 118.382812 8.726562 132.078125 C 5.125 156.554688 27.597656 170.980469 48.113281 176.574219 C 48.28125 176.617188 48.445312 176.601562 48.597656 176.519531 C 48.753906 176.4375 48.863281 176.316406 48.925781 176.148438 C 50.054688 173.054688 51.671875 170.199219 53.773438 167.585938 C 59.0625 161.007812 68.167969 157.121094 76.453125 156.347656 C 85.953125 155.453125 95.5625 156.46875 105.28125 159.390625 C 113.523438 161.867188 121.425781 165.039062 128.992188 168.910156 C 129.324219 169.078125 129.65625 169.082031 129.996094 168.921875 C 138.871094 164.714844 148.210938 160.425781 155.523438 156.296875 Z M 75.988281 107.683594 C 78.675781 108.730469 83.4375 110.476562 87.128906 112.125 C 99.304688 117.554688 111.636719 123.960938 124.121094 131.34375 C 137.003906 138.960938 148.304688 146.101562 158.023438 152.773438 C 166.738281 158.75 176.226562 164.558594 185.257812 170.730469 C 185.398438 170.824219 185.550781 170.867188 185.722656 170.867188 C 185.890625 170.863281 186.042969 170.8125 186.179688 170.710938 L 187.605469 169.664062 C 187.679688 169.609375 187.738281 169.542969 187.777344 169.460938 C 187.820312 169.375 187.839844 169.289062 187.839844 169.199219 C 187.835938 169.105469 187.816406 169.019531 187.773438 168.9375 C 187.730469 168.855469 187.667969 168.789062 187.59375 168.734375 L 167.957031 155.097656 C 167.75 154.949219 167.519531 154.847656 167.273438 154.789062 L 166.0625 154.488281 C 165.851562 154.4375 165.652344 154.351562 165.472656 154.222656 C 152.492188 145.117188 138.429688 135.625 124.03125 127.90625 C 113.902344 122.472656 102.710938 117.09375 90.457031 111.769531 C 88.648438 110.980469 83.863281 109.496094 76.105469 107.316406 C 75.992188 107.28125 75.914062 107.320312 75.875 107.433594 L 75.871094 107.445312 C 75.832031 107.558594 75.871094 107.640625 75.988281 107.683594 Z M 315.210938 108.695312 C 314.652344 108.554688 314.355469 108.492188 314.324219 108.507812 C 314.214844 108.558594 314.175781 108.636719 314.203125 108.753906 C 314.234375 108.871094 314.308594 108.921875 314.429688 108.910156 C 314.890625 108.882812 315.15625 108.851562 315.226562 108.8125 C 315.253906 108.796875 315.265625 108.777344 315.261719 108.746094 C 315.257812 108.714844 315.238281 108.699219 315.210938 108.695312 Z M 313.707031 108.898438 C 313.691406 108.769531 313.621094 108.710938 313.5 108.71875 C 310.394531 108.902344 307.007812 109.375 303.335938 110.140625 C 297.085938 111.449219 291.269531 113.117188 285.890625 115.152344 C 269.667969 121.285156 253.957031 129.210938 238.757812 138.929688 C 233.898438 142.039062 227.890625 145.976562 220.726562 150.75 C 220.699219 150.765625 220.6875 150.792969 220.6875 150.824219 C 220.6875 150.859375 220.699219 150.882812 220.726562 150.902344 L 223.625 152.808594 C 223.714844 152.871094 223.804688 152.871094 223.898438 152.808594 C 236.761719 144.054688 248.367188 136.542969 258.714844 130.273438 C 275.414062 120.167969 294.144531 111.972656 313.503906 109.167969 C 313.65625 109.148438 313.726562 109.0625 313.707031 108.910156 Z M 286.035156 141.660156 C 286.097656 141.613281 287.863281 141.097656 291.332031 140.117188 C 299.289062 137.871094 305.566406 133.382812 310.160156 126.652344 C 313.074219 122.382812 315.148438 117.78125 316.378906 112.847656 C 316.40625 112.726562 316.378906 112.617188 316.296875 112.523438 C 316.210938 112.429688 316.109375 112.394531 315.984375 112.410156 C 303.019531 114.113281 290.652344 117.824219 278.882812 123.542969 C 268.398438 128.632812 257.664062 134.855469 246.671875 142.203125 C 238.675781 147.546875 232.496094 151.683594 228.121094 154.617188 C 228.054688 154.664062 228.003906 154.722656 227.96875 154.792969 C 227.929688 154.867188 227.914062 154.945312 227.917969 155.023438 C 227.921875 155.105469 227.945312 155.183594 227.988281 155.25 C 228.03125 155.320312 228.089844 155.375 228.160156 155.417969 C 235.542969 159.523438 243.25 163.394531 251.285156 167.03125 C 251.394531 167.082031 251.507812 167.082031 251.617188 167.03125 C 260.667969 162.90625 270.113281 159.933594 279.945312 158.117188 C 298.875 154.617188 325.367188 156.488281 331.300781 179.390625 C 331.332031 179.511719 331.402344 179.601562 331.511719 179.664062 C 331.621094 179.726562 331.734375 179.738281 331.855469 179.703125 C 334.890625 178.851562 337.753906 177.878906 340.449219 176.78125 C 349.925781 172.917969 358.832031 165.710938 363.242188 156.640625 C 364.960938 153.113281 365.863281 148.96875 365.949219 144.203125 C 366.128906 134.179688 362.1875 126.300781 354.125 120.574219 C 344.589844 113.800781 332.582031 111.609375 320.984375 111.9375 C 320.84375 111.941406 320.714844 111.992188 320.605469 112.085938 C 320.5 112.179688 320.433594 112.296875 320.40625 112.441406 C 318.433594 123.785156 311.578125 134.929688 300.449219 139.226562 C 295.382812 141.183594 291.289062 142.308594 286.128906 141.964844 C 286.054688 141.960938 286.003906 141.921875 285.980469 141.847656 C 285.957031 141.773438 285.976562 141.710938 286.035156 141.660156 Z M 191.089844 167.09375 C 191.164062 167.144531 191.234375 167.144531 191.308594 167.09375 L 213.039062 152.058594 C 213.097656 152.019531 213.125 151.964844 213.125 151.894531 C 213.125 151.824219 213.097656 151.769531 213.039062 151.730469 L 191.597656 137.570312 C 191.523438 137.519531 191.445312 137.519531 191.371094 137.578125 L 170.3125 153.0625 C 170.257812 153.101562 170.234375 153.15625 170.234375 153.222656 C 170.234375 153.289062 170.265625 153.34375 170.320312 153.382812 Z M 196.882812 171.109375 C 197.015625 171.199219 197.148438 171.195312 197.277344 171.105469 L 219.257812 155.898438 C 219.308594 155.863281 219.34375 155.820312 219.371094 155.765625 C 219.398438 155.710938 219.410156 155.65625 219.40625 155.59375 C 219.40625 155.535156 219.386719 155.480469 219.359375 155.429688 C 219.328125 155.378906 219.285156 155.335938 219.234375 155.308594 L 216.6875 153.835938 C 216.558594 153.761719 216.433594 153.769531 216.3125 153.855469 L 194.484375 168.953125 C 194.382812 169.023438 194.335938 169.121094 194.335938 169.242188 C 194.335938 169.367188 194.386719 169.460938 194.492188 169.53125 Z M 245.792969 169.265625 C 245.101562 169.0625 244.441406 168.808594 243.808594 168.496094 C 236.542969 164.875 229.882812 161.410156 223.835938 158.105469 C 223.484375 157.917969 223.148438 157.933594 222.828125 158.160156 L 200.828125 173.382812 C 200.78125 173.414062 200.746094 173.453125 200.722656 173.5 C 200.699219 173.550781 200.6875 173.601562 200.691406 173.660156 C 200.691406 173.714844 200.707031 173.765625 200.738281 173.8125 C 200.765625 173.859375 200.804688 173.894531 200.851562 173.921875 L 219.351562 184.609375 C 219.472656 184.675781 219.59375 184.671875 219.714844 184.597656 C 227.210938 179.792969 235.265625 175.199219 243.878906 170.808594 C 243.976562 170.761719 244.628906 170.472656 245.835938 169.949219 C 245.992188 169.882812 246.066406 169.761719 246.054688 169.589844 C 246.042969 169.421875 245.957031 169.3125 245.792969 169.265625 Z M 181.84375 173.269531 C 181.839844 173.253906 181.835938 173.230469 181.835938 173.203125 C 181.835938 173.191406 181.804688 173.171875 181.75 173.136719 C 178.558594 171.074219 171.425781 166.386719 160.347656 159.066406 C 160.03125 158.859375 159.710938 158.851562 159.382812 159.039062 C 152.394531 163.078125 144.292969 167.175781 135.074219 171.339844 C 134.957031 171.390625 134.847656 171.476562 134.75 171.589844 C 134.671875 171.675781 134.644531 171.777344 134.664062 171.890625 C 134.683594 172.003906 134.746094 172.089844 134.847656 172.144531 C 143.097656 176.671875 149.976562 181.304688 159.226562 187.351562 C 159.515625 187.539062 159.804688 187.542969 160.09375 187.359375 L 181.683594 173.742188 C 181.863281 173.628906 181.914062 173.472656 181.84375 173.269531 Z M 123.511719 170.890625 C 113.367188 165.992188 102.761719 162 91.527344 160.53125 C 76.613281 158.574219 59.4375 161.605469 52.675781 176.875 C 52.640625 176.953125 52.625 177.039062 52.628906 177.125 C 52.628906 177.210938 52.652344 177.292969 52.691406 177.367188 C 52.734375 177.445312 52.789062 177.511719 52.855469 177.5625 C 52.925781 177.613281 53.003906 177.648438 53.089844 177.664062 C 63.5 179.613281 73.722656 180.5 84.285156 179.808594 C 97.796875 178.9375 110.863281 176.089844 123.492188 171.269531 C 123.574219 171.238281 123.621094 171.175781 123.625 171.085938 C 123.628906 170.996094 123.589844 170.929688 123.511719 170.890625 Z M 257.441406 169.777344 C 273.394531 176.734375 291.652344 181.667969 308.429688 181.894531 C 314.585938 181.976562 320.617188 181.414062 327.230469 180.644531 C 327.351562 180.632812 327.449219 180.574219 327.519531 180.472656 C 327.589844 180.371094 327.609375 180.261719 327.582031 180.140625 C 325.628906 172.207031 320.878906 166.796875 313.328125 163.917969 C 295.011719 156.9375 274.6875 161.507812 257.441406 169.074219 C 257.289062 169.140625 257.210938 169.257812 257.210938 169.425781 C 257.210938 169.59375 257.289062 169.710938 257.441406 169.777344 Z M 190.324219 171.757812 L 189.070312 172.628906 C 189 172.679688 188.945312 172.738281 188.90625 172.816406 C 188.867188 172.890625 188.847656 172.972656 188.847656 173.054688 C 188.847656 173.140625 188.867188 173.222656 188.910156 173.296875 C 188.949219 173.371094 189.003906 173.433594 189.078125 173.480469 L 190.902344 174.683594 C 191.144531 174.84375 191.414062 174.925781 191.703125 174.929688 C 191.992188 174.933594 192.261719 174.863281 192.507812 174.710938 L 193.972656 173.800781 C 194.035156 173.761719 194.082031 173.710938 194.121094 173.648438 C 194.15625 173.585938 194.171875 173.519531 194.175781 173.445312 C 194.175781 173.375 194.160156 173.304688 194.125 173.242188 C 194.09375 173.179688 194.046875 173.125 193.984375 173.085938 L 191.949219 171.746094 C 191.703125 171.582031 191.429688 171.5 191.136719 171.503906 C 190.839844 171.503906 190.570312 171.589844 190.324219 171.757812 Z M 327.320312 184.046875 C 325.5625 184.488281 323.71875 184.820312 321.785156 185.050781 C 309.660156 186.492188 297.183594 185.53125 285.226562 183.050781 C 274.605469 180.859375 263.515625 177.164062 251.949219 171.964844 C 251.703125 171.855469 251.449219 171.835938 251.1875 171.90625 C 250.339844 172.125 249.515625 172.441406 248.714844 172.851562 C 240.785156 176.882812 232.675781 181.476562 224.382812 186.625 C 224.328125 186.660156 224.285156 186.703125 224.253906 186.757812 C 224.222656 186.8125 224.210938 186.871094 224.210938 186.933594 C 224.210938 187 224.226562 187.058594 224.257812 187.113281 C 224.289062 187.167969 224.332031 187.210938 224.390625 187.242188 C 233.355469 192.410156 242.800781 196.933594 252.722656 200.8125 C 256.359375 202.230469 261.253906 203.800781 267.414062 205.523438 C 280.652344 209.226562 294.589844 210.765625 307.445312 207.171875 C 313.097656 205.59375 317.835938 202.921875 321.664062 199.152344 C 325.390625 195.480469 328.292969 189.761719 327.84375 184.417969 C 327.835938 184.289062 327.777344 184.1875 327.671875 184.113281 C 327.566406 184.039062 327.449219 184.015625 327.320312 184.046875 Z M 51.328125 180.953125 C 49.378906 190.90625 53.761719 200.621094 62.039062 206.484375 C 73.648438 214.703125 88.808594 216.128906 102.582031 212.875 C 107.117188 211.804688 110.824219 210.773438 113.699219 209.777344 C 127.796875 204.882812 141.601562 197.78125 154.910156 190.199219 C 154.964844 190.167969 155.011719 190.125 155.042969 190.070312 C 155.074219 190.015625 155.09375 189.957031 155.09375 189.890625 C 155.097656 189.828125 155.082031 189.765625 155.054688 189.707031 C 155.023438 189.648438 154.980469 189.601562 154.929688 189.566406 C 146.867188 184.132812 138.761719 179.214844 130.609375 174.8125 C 129.882812 174.425781 129.21875 174.179688 128.609375 174.074219 C 128.417969 174.042969 128.230469 174.058594 128.050781 174.125 C 107.40625 181.894531 86.449219 185.285156 64.613281 182.945312 C 59.847656 182.4375 55.535156 181.699219 51.679688 180.734375 C 51.601562 180.714844 51.527344 180.726562 51.457031 180.769531 C 51.386719 180.8125 51.34375 180.875 51.328125 180.953125 Z M 185.785156 175.527344 C 185.605469 175.421875 185.40625 175.375 185.195312 175.386719 C 184.988281 175.394531 184.796875 175.460938 184.621094 175.582031 C 177.839844 180.398438 170.863281 184.914062 163.695312 189.136719 C 163.519531 189.238281 163.429688 189.390625 163.433594 189.597656 C 163.433594 189.800781 163.523438 189.953125 163.699219 190.050781 L 164.554688 190.542969 C 164.992188 190.800781 165.429688 190.792969 165.867188 190.527344 L 187.371094 177.203125 C 187.441406 177.160156 187.492188 177.105469 187.53125 177.035156 C 187.566406 176.964844 187.585938 176.890625 187.582031 176.8125 C 187.582031 176.734375 187.5625 176.660156 187.523438 176.59375 C 187.484375 176.527344 187.429688 176.472656 187.359375 176.433594 Z M 195.523438 176.863281 C 195.46875 176.898438 195.429688 176.941406 195.398438 176.996094 C 195.367188 177.054688 195.355469 177.113281 195.355469 177.175781 C 195.355469 177.242188 195.371094 177.300781 195.40625 177.355469 C 195.4375 177.410156 195.480469 177.453125 195.535156 177.484375 L 214 188.144531 C 214.125 188.21875 214.25 188.21875 214.375 188.140625 L 216.039062 187.105469 C 216.09375 187.074219 216.136719 187.027344 216.167969 186.972656 C 216.199219 186.917969 216.214844 186.855469 216.214844 186.792969 C 216.210938 186.730469 216.195312 186.671875 216.164062 186.617188 C 216.132812 186.558594 216.089844 186.515625 216.035156 186.484375 L 197.566406 175.828125 C 197.441406 175.757812 197.316406 175.757812 197.191406 175.835938 Z M 187.328125 206.035156 C 187.40625 206.085938 187.484375 206.082031 187.558594 206.027344 L 209.949219 190.542969 C 210.011719 190.503906 210.042969 190.445312 210.039062 190.367188 C 210.039062 190.292969 210.003906 190.238281 209.9375 190.199219 L 191.25 179.414062 C 191.179688 179.375 191.109375 179.375 191.039062 179.414062 L 168.601562 193.320312 C 168.542969 193.359375 168.511719 193.414062 168.507812 193.488281 C 168.507812 193.558594 168.539062 193.617188 168.597656 193.65625 Z M 298.410156 212.542969 L 298.121094 212.457031 C 297.945312 212.40625 297.773438 212.382812 297.597656 212.390625 C 290.71875 212.675781 284.511719 212.371094 278.972656 211.472656 C 258.628906 208.167969 239.121094 199.859375 220.9375 189.3125 C 220.757812 189.210938 220.566406 189.164062 220.363281 189.171875 C 220.15625 189.179688 219.96875 189.242188 219.800781 189.355469 L 218.433594 190.296875 C 218.382812 190.335938 218.339844 190.382812 218.3125 190.441406 C 218.285156 190.5 218.273438 190.558594 218.273438 190.625 C 218.277344 190.6875 218.296875 190.746094 218.328125 190.800781 C 218.363281 190.855469 218.410156 190.902344 218.464844 190.933594 C 224.519531 194.292969 228.164062 196.277344 229.402344 196.894531 C 243.578125 203.9375 258.925781 209.644531 273.894531 212.425781 C 280.25 213.609375 286.921875 213.933594 293.90625 213.398438 C 295.890625 213.242188 297.390625 213.042969 298.402344 212.796875 C 298.46875 212.78125 298.503906 212.742188 298.507812 212.671875 C 298.507812 212.601562 298.476562 212.558594 298.410156 212.542969 Z M 127.570312 208.445312 C 127.507812 208.523438 127.503906 208.605469 127.554688 208.6875 C 127.605469 208.773438 127.679688 208.800781 127.773438 208.777344 C 129.6875 208.332031 131.410156 207.800781 132.933594 207.1875 C 142.335938 203.402344 151.214844 199.007812 159.574219 194.003906 C 159.675781 193.941406 159.757812 193.859375 159.820312 193.757812 C 159.882812 193.65625 159.914062 193.542969 159.921875 193.425781 C 159.929688 193.304688 159.90625 193.191406 159.855469 193.082031 C 159.804688 192.976562 159.730469 192.886719 159.632812 192.816406 L 159.546875 192.746094 C 159.296875 192.558594 159.011719 192.460938 158.699219 192.449219 C 158.386719 192.4375 158.097656 192.515625 157.832031 192.6875 C 149.261719 197.796875 139.460938 202.820312 128.4375 207.765625 C 128.113281 207.90625 127.824219 208.136719 127.570312 208.445312 Z M 155.605469 270.292969 C 156.1875 275.425781 157.789062 280.296875 160.414062 284.902344 C 160.464844 284.984375 160.53125 285.011719 160.625 284.984375 C 160.714844 284.953125 160.753906 284.894531 160.746094 284.796875 C 160.726562 284.496094 160.621094 284.089844 160.433594 283.585938 C 158.679688 278.847656 157.488281 274.578125 156.984375 270.136719 C 156.476562 265.695312 156.6875 261.265625 157.339844 256.257812 C 157.410156 255.726562 157.417969 255.308594 157.371094 255.011719 C 157.355469 254.917969 157.300781 254.871094 157.210938 254.859375 C 157.117188 254.851562 157.054688 254.890625 157.027344 254.980469 C 155.496094 260.054688 155.023438 265.15625 155.605469 270.292969 Z M 155.605469 270.292969 " fill-opacity="1" fill-rule="nonzero"/></g></svg>